<?xml version="1.0" encoding="UTF-8"?>
<svg id="OBJECTS" xmlns="http://www.w3.org/2000/svg" viewBox="0 0 148 148">
  <defs>
    <style>
      .cls-1 {
        fill: #fff;
      }
    </style>
  </defs>
  <rect width="148" height="148"/>
  <g>
    <polygon class="cls-1" points="68.97 128.39 68.97 107.38 68.58 107.7 68.58 128.39 68.97 128.39"/>
    <path class="cls-1" d="m93.01,105.65l8.28-8.61v21.53c0,12.17,10.99,22.04,24.55,22.04h13.48V57.06h-13.6v71.33c-5.99,0-10.83-4.36-10.83-9.73v-49.68l-21.87,18.29v18.38"/>
    <polygon class="cls-1" points="93.01 41.55 140.6 41.55 140.6 7.4 7.4 7.4 7.4 41.55 54.99 41.55 54.99 73.93 68.58 85.22 68.58 29.34 21 29.34 21 19.61 127 19.61 127 29.34 79.42 29.34 79.42 94.27 82.03 96.46 93.01 87.27 93.01 48.37 93.01 41.55"/>
    <polygon class="cls-1" points="93.01 105.65 93.01 88.96 93.01 87.27 82.03 96.46 93.01 105.65"/>
    <polygon class="cls-1" points="79.8 107.7 79.42 107.38 79.42 128.39 79.8 128.39 79.8 107.7"/>
    <path class="cls-1" d="m68.58,107.7v-9.38l-35.09-29.34v49.68c0,5.37-4.85,9.73-10.83,9.73V57.06h-13.6v83.54h13.48c13.56,0,24.55-9.87,24.55-22.04v-21.53l7.89,6.6v36.97h.38v-21.85l13.21-11.05h0Z"/>
    <polygon class="cls-1" points="79.8 107.7 79.8 128.39 79.42 128.39 68.97 128.39 68.58 128.39 68.58 107.7 55.37 118.75 55.37 140.6 93.01 140.6 93.01 118.75 79.8 107.7"/>
  </g>
</svg>